<?xml version="1.0" encoding="UTF-8"?>
<!-- Uploaded to: SVG Repo, www.svgrepo.com, Generator: SVG Repo Mixer Tools -->
<svg width="800px" height="800px" viewBox="0 0 512 512" version="1.1" xmlns="http://www.w3.org/2000/svg" xmlns:xlink="http://www.w3.org/1999/xlink">
    <title>building2-filled</title>
    <g id="Page-1" stroke="none" stroke-width="1" fill="none" fill-rule="evenodd">
        <g id="icon" fill="#2C7BDE" transform="translate(42.666667, 64.000000)">
            <path d="M234.666667,1.42108547e-14 L234.666,341.333 L256,341.333 L256,85.3333333 L405.333333,85.3333333 L405.333,341.333 L426.666667,341.333333 L426.666667,384 L234.666,383.999 L234.666667,384 L21.3333333,384 L21.333,383.999 L7.10542736e-15,384 L7.10542736e-15,341.333333 L21.333,341.333 L21.3333333,1.42108547e-14 L234.666667,1.42108547e-14 Z M149.333333,277.333333 L106.666667,277.333333 L106.666667,341.333333 L149.333333,341.333333 L149.333333,277.333333 Z M341.333333,256 L298.666667,256 L298.666667,298.666667 L341.333333,298.666667 L341.333333,256 Z M341.333333,170.666667 L298.666667,170.666667 L298.666667,213.333333 L341.333333,213.333333 L341.333333,170.666667 Z M149.333333,170.666667 L106.666667,170.666667 L106.666667,213.333333 L149.333333,213.333333 L149.333333,170.666667 Z M149.333333,85.3333333 L106.666667,85.3333333 L106.666667,128 L149.333333,128 L149.333333,85.3333333 Z" id="Combined-Shape">

</path>
        </g>
    </g>
</svg>